<svg width="217" height="219" viewBox="0 0 217 219" fill="none" xmlns="http://www.w3.org/2000/svg">
<path fill-rule="evenodd" clip-rule="evenodd" d="M172.732 197.318C174.751 195.822 176.717 194.258 178.626 192.628L25.2186 39.2206C23.6134 41.154 22.0733 43.1441 20.6018 45.1876L172.732 197.318ZM20.0131 46.0131C18.5451 48.0919 17.1476 50.2247 15.8241 52.4079L165.595 202.179C167.754 200.831 169.862 199.409 171.917 197.917L20.0131 46.0131ZM11.5552 60.137C12.7222 57.8062 13.9696 55.5233 15.2938 53.2918L164.721 202.719C162.514 204.068 160.256 205.34 157.95 206.532L11.5552 60.137ZM11.0872 61.0832C9.91676 63.4785 8.83091 65.9232 7.83354 68.4134L149.757 210.337C152.223 209.315 154.643 208.205 157.013 207.009L11.0872 61.0832ZM4.71504 77.2929C5.52398 74.6263 6.43149 72.003 7.4333 69.4274L148.753 210.747C146.202 211.774 143.603 212.706 140.961 213.539L4.71504 77.2929ZM4.39064 78.3827C3.57791 81.166 2.87227 83.9955 2.27852 86.8663L131.472 216.06C134.318 215.442 137.123 214.711 139.881 213.874L4.39064 78.3827ZM0.647338 97.2351C0.984796 94.1303 1.45144 91.0647 2.04173 88.0437L130.304 216.306C127.308 216.922 124.267 217.413 121.187 217.774L0.647338 97.2351ZM0.515529 98.5175C0.194295 101.833 0.020236 105.192 1.52588e-05 108.588L109.917 218.504C113.288 218.461 116.623 218.263 119.914 217.916L0.515529 98.5175ZM0.642056 121.23C0.242609 117.539 0.0256627 113.794 0.000497701 110.002L108.512 218.514H108.498C104.737 218.514 101.02 218.321 97.3569 217.945L0.642056 121.23ZM0.826969 122.829C1.37023 127.244 2.17509 131.578 3.22544 135.813L82.8571 215.445C87.0699 216.473 91.3787 217.253 95.7676 217.77L0.826969 122.829ZM9.54218 154.13C7.18526 148.868 5.2301 143.384 3.71608 137.718L80.9623 214.964C75.3248 213.479 69.8661 211.549 64.6255 209.213L9.54218 154.13ZM10.7665 156.768C21.5275 179.173 39.6622 197.315 61.9971 207.999L10.7665 156.768ZM184.866 186.867C183.098 188.631 181.27 190.335 179.386 191.973L25.8634 38.4511C27.4779 36.5423 29.1566 34.6901 30.896 32.8979L184.866 186.867ZM185.57 186.158C187.321 184.378 189.012 182.538 190.64 180.641L37.0388 27.0408C35.1664 28.6923 33.3509 30.4077 31.5957 32.1835L185.57 186.158ZM195.944 173.946C194.46 175.978 192.907 177.956 191.289 179.877L37.7935 26.3813C39.6901 24.7391 41.6436 23.1618 43.6508 21.6528L195.944 173.946ZM196.538 173.126C198.019 171.06 199.43 168.94 200.767 166.769L50.745 16.747C48.5986 18.1086 46.5029 19.5438 44.4614 21.0492L196.538 173.126ZM205.083 159.085C203.901 161.403 202.64 163.672 201.302 165.89L51.6138 16.2016C53.8071 14.8392 56.0522 13.5532 58.3454 12.3473L205.083 159.085ZM205.557 158.144C206.742 155.764 207.843 153.334 208.856 150.858L66.4889 8.49086C64.0375 9.5284 61.6319 10.654 59.276 11.8637L205.557 158.144ZM212.031 142.033C211.204 144.684 210.28 147.291 209.262 149.85L67.4867 8.07445C70.0212 7.0317 72.6037 6.08271 75.2298 5.23175L212.031 142.033ZM212.363 140.95C213.192 138.189 213.917 135.382 214.531 132.533L84.6464 2.64839C81.8219 3.28639 79.0391 4.0353 76.3026 4.89034L212.363 140.95ZM216.24 122.242C215.877 125.323 215.388 128.366 214.776 131.364L85.8055 2.3933C88.7784 1.75629 91.7962 1.2419 94.8536 0.855604L216.24 122.242ZM216.382 120.97C216.73 117.683 216.933 114.353 216.985 110.987L106.026 0.0278024C102.683 0.103059 99.3775 0.330553 96.1159 0.70367L216.382 120.97ZM216.998 109.257C216.998 109.366 216.998 109.476 216.998 109.585L107.418 0.00530526C107.777 0.00177114 108.137 0 108.498 0C111.854 0 115.174 0.153395 118.452 0.453603L216.477 98.4787C216.822 102.024 216.998 105.62 216.998 109.257ZM216.312 96.8995C215.826 92.5551 215.087 88.2878 214.111 84.1129L132.734 2.73594C128.582 1.78201 124.339 1.06791 120.021 0.60888L216.312 96.8995ZM213.656 82.2442C203.836 43.3623 173.309 12.8058 134.593 3.18049L213.656 82.2442Z" fill="url(#paint0_linear_33_355)" fill-opacity="0.5"/>
<defs>
<linearGradient id="paint0_linear_33_355" x1="-51.9692" y1="40.3723" x2="84.9822" y2="207.847" gradientUnits="userSpaceOnUse">
<stop stop-color="#F27642"/>
<stop offset="0.5" stop-color="#5694EE"/>
<stop offset="1" stop-color="#313131"/>
</linearGradient>
</defs>
</svg>
